v 0.253067 -0.272493 -0.384596
v -0.290126 -0.188128 -0.382501
v 0.259483 -0.306201 -0.503285
v -0.290126 -0.188128 -0.382501
v -0.289314 -0.023526 -0.402509
v -0.290126 -0.111100 -0.402509
v -0.280732 -0.026181 -0.506950
v -0.290126 -0.111100 -0.402509
v -0.289314 -0.023526 -0.402509
v 0.253067 -0.272493 -0.384596
v 0.063739 -0.193077 -0.306586
v -0.290126 -0.188128 -0.382501
v 0.253067 -0.272493 -0.384596
v 0.097264 -0.168744 -0.306586
v 0.063739 -0.193077 -0.306586
v -0.182116 -0.056686 -0.373857
v 0.097264 -0.111100 -0.324158
v -0.289314 -0.023526 -0.402509
v -0.290126 -0.188128 -0.382501
v -0.202785 -0.123502 -0.354740
v -0.289314 -0.023526 -0.402509
v -0.182116 -0.056686 -0.373857
v -0.289314 -0.023526 -0.402509
v -0.202785 -0.123502 -0.354740
v 0.097264 -0.168744 -0.306586
v -0.202785 -0.123502 -0.354740
v 0.063739 -0.193077 -0.306586
v -0.182116 -0.056686 -0.373857
v -0.202785 -0.123502 -0.354740
v 0.097264 -0.111100 -0.324158
v 0.097264 -0.111100 -0.324158
v -0.202785 -0.123502 -0.354740
v 0.097264 -0.168744 -0.306586
v 0.253067 -0.272493 -0.384596
v 0.259483 -0.306201 -0.503285
v 0.294210 -0.195362 -0.410834
v 0.253067 -0.272493 -0.384596
v 0.294210 -0.195362 -0.410834
v 0.097264 -0.168744 -0.306586
v -0.280732 -0.026181 -0.506950
v -0.289314 -0.023526 -0.402509
v 0.294210 -0.111100 -0.431750
v 0.097264 -0.111100 -0.324158
v 0.294210 -0.111100 -0.431750
v -0.289314 -0.023526 -0.402509
v 0.097264 -0.111100 -0.324158
v 0.097264 -0.168744 -0.306586
v 0.294210 -0.111100 -0.431750
v 0.294210 -0.195362 -0.410834
v 0.294210 -0.111100 -0.431750
v 0.097264 -0.168744 -0.306586
v 0.063739 -0.193077 -0.306586
v -0.177917 -0.181039 -0.354740
v -0.290126 -0.188128 -0.382501
v -0.290126 -0.188128 -0.382501
v -0.177917 -0.181039 -0.354740
v -0.202785 -0.123502 -0.354740
v -0.202785 -0.123502 -0.354740
v -0.177917 -0.181039 -0.354740
v 0.063739 -0.193077 -0.306586
v 0.259483 -0.306201 -0.503285
v 0.291361 -0.203150 -0.527168
v 0.294210 -0.195362 -0.410834
v 0.294210 -0.195362 -0.410834
v 0.291361 -0.203150 -0.527168
v 0.294210 -0.111100 -0.431750
v -0.290126 -0.188128 -0.382501
v -0.290126 -0.111100 -0.402509
v -0.281143 -0.213967 -0.483695
v -0.290126 -0.188128 -0.382501
v -0.281143 -0.213967 -0.483695
v 0.259483 -0.306201 -0.503285
v -0.280732 -0.026181 -0.506950
v -0.281143 -0.111100 -0.506950
v -0.290126 -0.111100 -0.402509
v -0.290126 -0.111100 -0.402509
v -0.281143 -0.111100 -0.506950
v -0.281143 -0.213967 -0.483695
v -0.092582 -0.084382 -0.614542
v -0.196407 -0.111100 -0.585890
v -0.199780 -0.051222 -0.585890
v -0.280732 -0.026181 -0.506950
v 0.294210 -0.111100 -0.431750
v 0.265088 -0.111100 -0.514573
v -0.280732 -0.026181 -0.506950
v 0.265088 -0.111100 -0.514573
v -0.199780 -0.051222 -0.585890
v 0.291361 -0.203150 -0.527168
v 0.265088 -0.111100 -0.514573
v 0.294210 -0.111100 -0.431750
v 0.123422 -0.281294 -0.567568
v 0.259483 -0.306201 -0.503285
v -0.196407 -0.233497 -0.560182
v -0.281143 -0.213967 -0.483695
v -0.196407 -0.233497 -0.560182
v 0.259483 -0.306201 -0.503285
v 0.265088 -0.111100 -0.514573
v 0.180351 -0.111100 -0.593514
v -0.199780 -0.051222 -0.585890
v 0.291361 -0.203150 -0.527168
v 0.180351 -0.111100 -0.593514
v 0.265088 -0.111100 -0.514573
v 0.123422 -0.281294 -0.567568
v -0.196407 -0.233497 -0.560182
v 0.014129 -0.254906 -0.595329
v -0.280732 -0.026181 -0.506950
v -0.235951 -0.168153 -0.560182
v -0.281143 -0.111100 -0.506950
v -0.280732 -0.026181 -0.506950
v -0.199780 -0.051222 -0.585890
v -0.235951 -0.168153 -0.560182
v -0.196407 -0.111100 -0.585890
v -0.235951 -0.168153 -0.560182
v -0.199780 -0.051222 -0.585890
v -0.281143 -0.111100 -0.506950
v -0.235951 -0.168153 -0.560182
v -0.281143 -0.213967 -0.483695
v -0.281143 -0.213967 -0.483695
v -0.235951 -0.168153 -0.560182
v -0.196407 -0.233497 -0.560182
v -0.196407 -0.233497 -0.560182
v -0.235951 -0.168153 -0.560182
v -0.196407 -0.111100 -0.585890
v 0.259483 -0.306201 -0.503285
v 0.180351 -0.235383 -0.567568
v 0.291361 -0.203150 -0.527168
v 0.123422 -0.281294 -0.567568
v 0.180351 -0.235383 -0.567568
v 0.259483 -0.306201 -0.503285
v -0.092582 -0.084382 -0.614542
v -0.199780 -0.051222 -0.585890
v 0.068142 -0.111100 -0.622165
v 0.180351 -0.111100 -0.593514
v 0.068142 -0.111100 -0.622165
v -0.199780 -0.051222 -0.585890
v -0.092582 -0.084382 -0.614542
v -0.084197 -0.111100 -0.614542
v -0.196407 -0.111100 -0.585890
v 0.123422 -0.281294 -0.567568
v 0.014129 -0.254906 -0.595329
v 0.068142 -0.242472 -0.595329
v 0.123422 -0.281294 -0.567568
v 0.068142 -0.242472 -0.595329
v 0.180351 -0.235383 -0.567568
v -0.196407 -0.233497 -0.560182
v -0.084197 -0.240586 -0.587943
v 0.014129 -0.254906 -0.595329
v 0.014129 -0.254906 -0.595329
v -0.084197 -0.240586 -0.587943
v -0.084197 -0.111100 -0.614542
v -0.092582 -0.084382 -0.614542
v 0.068142 -0.111100 -0.622165
v 0.052952 -0.129402 -0.622165
v -0.092582 -0.084382 -0.614542
v 0.052952 -0.129402 -0.622165
v -0.084197 -0.111100 -0.614542
v 0.014129 -0.254906 -0.595329
v -0.084197 -0.111100 -0.614542
v 0.052952 -0.129402 -0.622165
v 0.014129 -0.254906 -0.595329
v 0.052952 -0.129402 -0.622165
v 0.068142 -0.242472 -0.595329
v -0.196407 -0.233497 -0.560182
v -0.196407 -0.111100 -0.585890
v -0.130848 -0.208085 -0.587943
v -0.196407 -0.233497 -0.560182
v -0.130848 -0.208085 -0.587943
v -0.084197 -0.240586 -0.587943
v -0.084197 -0.111100 -0.614542
v -0.130848 -0.208085 -0.587943
v -0.196407 -0.111100 -0.585890
v -0.084197 -0.240586 -0.587943
v -0.130848 -0.208085 -0.587943
v -0.084197 -0.111100 -0.614542
v 0.291361 -0.203150 -0.527168
v 0.160150 -0.162562 -0.593514
v 0.180351 -0.111100 -0.593514
v 0.180351 -0.235383 -0.567568
v 0.160150 -0.162562 -0.593514
v 0.291361 -0.203150 -0.527168
v 0.068142 -0.242472 -0.595329
v 0.160150 -0.162562 -0.593514
v 0.180351 -0.235383 -0.567568
v 0.180351 -0.111100 -0.593514
v 0.160150 -0.162562 -0.593514
v 0.068142 -0.111100 -0.622165
v 0.068142 -0.111100 -0.622165
v 0.160150 -0.162562 -0.593514
v 0.052952 -0.129402 -0.622165
v 0.052952 -0.129402 -0.622165
v 0.160150 -0.162562 -0.593514
v 0.068142 -0.242472 -0.595329
vn -0.147087 -0.953557 0.262860
vn -0.999319 0.009268 0.035681
vn -0.996579 0.009243 -0.082124
vn -0.127253 -0.832712 0.538885
vn 0.238613 -0.328746 0.913778
vn -0.020442 0.615004 0.788258
vn -0.376329 0.113624 0.919492
vn -0.152820 0.315256 0.936621
vn -0.129608 0.178566 0.975354
vn -0.109031 0.304469 0.946261
vn -0.108895 0.289858 0.950854
vn 0.892392 -0.419116 0.167268
vn 0.472300 0.047466 0.880159
vn 0.147766 0.988937 -0.012995
vn 0.156216 0.945425 0.285952
vn 0.463139 0.258434 0.847770
vn 0.479417 0.211431 0.851737
vn -0.198798 -0.384130 0.901622
vn -0.232945 -0.100680 0.967264
vn -0.198818 -0.085930 0.976262
vn 0.955097 -0.296272 -0.003562
vn 0.999692 -0.005979 -0.024087
vn -0.996321 -0.021544 -0.082944
vn -0.155457 -0.960353 0.231418
vn -0.996310 0.004822 -0.085694
vn -0.996134 -0.019369 -0.085679
vn -0.262454 -0.014787 -0.964831
vn 0.152777 0.986800 -0.053720
vn 0.149715 0.976317 -0.156176
vn 0.899886 0.300140 -0.316420
vn -0.148984 -0.986572 -0.066921
vn -0.165393 -0.983881 0.067993
vn 0.150399 0.975355 -0.161442
vn 0.653843 0.282654 -0.701852
vn -0.147479 -0.938682 -0.311651
vn -0.760371 0.003680 -0.649477
vn -0.688528 0.053982 -0.723198
vn -0.515063 -0.029020 -0.856660
vn -0.818987 -0.126526 -0.559689
vn -0.662980 -0.401215 -0.632047
vn -0.321622 -0.194636 -0.926647
vn 0.405132 -0.323502 -0.855110
vn 0.328225 -0.406997 -0.852421
vn 0.112720 0.832750 -0.542053
vn 0.125769 0.861148 -0.492551
vn -0.246661 -0.077415 -0.966004
vn 0.108510 -0.471357 -0.875241
vn 0.246813 -0.306047 -0.919466
vn -0.161644 -0.890130 -0.426072
vn -0.102349 -0.200165 -0.974402
vn -0.041619 0.034542 -0.998536
vn -0.057907 -0.018174 -0.998156
vn -0.079131 -0.184978 -0.979552
vn 0.051579 -0.224056 -0.973210
vn -0.317421 -0.194927 -0.928034
vn -0.245667 -0.352625 -0.902941
vn -0.244783 -0.145178 -0.958647
vn -0.138830 -0.199273 -0.970060
vn 0.405790 -0.159290 -0.899978
vn 0.387975 -0.211956 -0.896967
vn 0.247328 -0.263592 -0.932388
vn 0.246245 -0.096662 -0.964375
vn 0.204993 -0.170133 -0.963863
vn 0.194174 -0.201763 -0.959994
f 1//1 2//1 3//1
f 4//2 5//2 6//2
f 7//3 8//3 9//3
f 10//4 11//4 12//4
f 13//5 14//5 15//5
f 16//6 17//6 18//6
f 19//7 20//7 21//7
f 22//8 23//8 24//8
f 25//9 26//9 27//9
f 28//10 29//10 30//10
f 31//11 32//11 33//11
f 34//12 35//12 36//12
f 37//13 38//13 39//13
f 40//14 41//14 42//14
f 43//15 44//15 45//15
f 46//16 47//16 48//16
f 49//17 50//17 51//17
f 52//18 53//18 54//18
f 55//19 56//19 57//19
f 58//20 59//20 60//20
f 61//21 62//21 63//21
f 64//22 65//22 66//22
f 67//23 68//23 69//23
f 70//24 71//24 72//24
f 73//25 74//25 75//25
f 76//26 77//26 78//26
f 79//27 80//27 81//27
f 82//28 83//28 84//28
f 85//29 86//29 87//29
f 88//30 89//30 90//30
f 91//31 92//31 93//31
f 94//32 95//32 96//32
f 97//33 98//33 99//33
f 100//34 101//34 102//34
f 103//35 104//35 105//35
f 106//36 107//36 108//36
f 109//37 110//37 111//37
f 112//38 113//38 114//38
f 115//39 116//39 117//39
f 118//40 119//40 120//40
f 121//41 122//41 123//41
f 124//42 125//42 126//42
f 127//43 128//43 129//43
f 130//44 131//44 132//44
f 133//45 134//45 135//45
f 136//46 137//46 138//46
f 139//47 140//47 141//47
f 142//48 143//48 144//48
f 145//49 146//49 147//49
f 148//50 149//50 150//50
f 151//51 152//51 153//51
f 154//52 155//52 156//52
f 157//53 158//53 159//53
f 160//54 161//54 162//54
f 163//55 164//55 165//55
f 166//56 167//56 168//56
f 169//57 170//57 171//57
f 172//58 173//58 174//58
f 175//59 176//59 177//59
f 178//60 179//60 180//60
f 181//61 182//61 183//61
f 184//62 185//62 186//62
f 187//63 188//63 189//63
f 190//64 191//64 192//64
