v -0.264875 0.195480 -0.402509
v -0.299568 0.206212 -0.506165
v -0.288398 0.119437 -0.402962
v 0.276747 -0.055943 -0.405057
v 0.105214 0.080998 -0.324158
v 0.087419 0.023473 -0.327046
v 0.097264 0.111600 -0.324158
v 0.087419 0.023473 -0.327046
v 0.105214 0.080998 -0.324158
v -0.299568 0.206212 -0.506165
v -0.290126 0.111600 -0.402509
v -0.288398 0.119437 -0.402962
v -0.264875 0.195480 -0.402509
v -0.288398 0.119437 -0.402962
v -0.290126 0.111600 -0.402509
v -0.264875 0.195480 -0.402509
v -0.157677 0.162320 -0.373857
v 0.097264 0.111600 -0.324158
v 0.276747 -0.055943 -0.405057
v -0.290126 0.032001 -0.402962
v 0.283163 -0.089651 -0.523746
v -0.299568 0.206212 -0.506165
v -0.290126 0.032001 -0.402962
v -0.290126 0.111600 -0.402509
v 0.276747 -0.055943 -0.405057
v 0.087419 0.023473 -0.327046
v -0.290126 0.032001 -0.402962
v -0.264875 0.195480 -0.402509
v 0.294210 0.111600 -0.431750
v -0.299568 0.206212 -0.506165
v -0.264875 0.195480 -0.402509
v 0.097264 0.111600 -0.324158
v 0.294210 0.111600 -0.431750
v 0.276747 -0.055943 -0.405057
v 0.294210 0.111600 -0.431750
v 0.105214 0.080998 -0.324158
v 0.097264 0.111600 -0.324158
v 0.105214 0.080998 -0.324158
v 0.294210 0.111600 -0.431750
v 0.276747 -0.055943 -0.405057
v 0.283163 -0.089651 -0.523746
v 0.294210 0.024767 -0.431294
v 0.276747 -0.055943 -0.405057
v 0.294210 0.024767 -0.431294
v 0.294210 0.111600 -0.431750
v 0.294210 0.111600 -0.431750
v 0.294210 0.024767 -0.431294
v 0.283163 -0.089651 -0.523746
v -0.264875 0.195480 -0.402509
v -0.290126 0.111600 -0.402509
v -0.177917 0.111600 -0.373857
v -0.264875 0.195480 -0.402509
v -0.177917 0.111600 -0.373857
v -0.157677 0.162320 -0.373857
v 0.097264 0.111600 -0.324158
v -0.177917 0.111600 -0.373857
v 0.087419 0.023473 -0.327046
v -0.157677 0.162320 -0.373857
v -0.177917 0.111600 -0.373857
v 0.097264 0.111600 -0.324158
v -0.290126 0.032001 -0.402962
v -0.177917 0.111600 -0.373857
v -0.290126 0.111600 -0.402509
v 0.087419 0.023473 -0.327046
v -0.177917 0.039090 -0.375201
v -0.290126 0.032001 -0.402962
v -0.177917 0.111600 -0.373857
v -0.177917 0.039090 -0.375201
v 0.087419 0.023473 -0.327046
v -0.290126 0.032001 -0.402962
v -0.177917 0.039090 -0.375201
v -0.177917 0.111600 -0.373857
v -0.290126 0.032001 -0.402962
v -0.281143 0.006162 -0.504155
v 0.283163 -0.089651 -0.523746
v -0.299568 0.206212 -0.506165
v -0.281143 0.006162 -0.504155
v -0.290126 0.032001 -0.402962
v 0.147102 -0.064744 -0.588028
v 0.180351 -0.015254 -0.588028
v 0.283163 -0.089651 -0.523746
v -0.281143 0.006162 -0.504155
v -0.196407 -0.013368 -0.580642
v 0.283163 -0.089651 -0.523746
v 0.147102 -0.064744 -0.588028
v 0.283163 -0.089651 -0.523746
v -0.196407 -0.013368 -0.580642
v 0.147102 -0.064744 -0.588028
v -0.196407 -0.013368 -0.580642
v 0.037809 -0.038356 -0.615789
v 0.147102 -0.064744 -0.588028
v 0.068142 -0.022343 -0.615789
v 0.180351 -0.015254 -0.588028
v 0.147102 -0.064744 -0.588028
v 0.037809 -0.038356 -0.615789
v 0.068142 -0.022343 -0.615789
v -0.196407 -0.013368 -0.580642
v -0.084197 -0.020457 -0.608403
v 0.037809 -0.038356 -0.615789
v 0.294210 0.111600 -0.431750
v 0.265088 0.111600 -0.514573
v -0.299568 0.206212 -0.506165
v 0.294210 0.111600 -0.431750
v 0.283163 -0.089651 -0.523746
v 0.265088 0.111600 -0.514573
v -0.175341 0.167784 -0.585890
v -0.196407 0.111600 -0.585890
v -0.299568 0.206212 -0.506165
v 0.265088 0.111600 -0.514573
v 0.180351 0.111600 -0.593514
v -0.299568 0.206212 -0.506165
v -0.175341 0.167784 -0.585890
v -0.299568 0.206212 -0.506165
v 0.180351 0.111600 -0.593514
v 0.283163 -0.089651 -0.523746
v 0.180351 0.111600 -0.593514
v 0.265088 0.111600 -0.514573
v -0.175341 0.167784 -0.585890
v 0.068142 0.111600 -0.622165
v -0.068143 0.134624 -0.614542
v -0.175341 0.167784 -0.585890
v 0.180351 0.111600 -0.593514
v 0.068142 0.111600 -0.622165
v -0.299568 0.206212 -0.506165
v -0.212271 0.048398 -0.580642
v -0.281143 0.006162 -0.504155
v -0.281143 0.006162 -0.504155
v -0.212271 0.048398 -0.580642
v -0.196407 -0.013368 -0.580642
v -0.196407 0.111600 -0.585890
v -0.212271 0.048398 -0.580642
v -0.299568 0.206212 -0.506165
v -0.084197 -0.020457 -0.608403
v -0.107168 0.008465 -0.608403
v 0.037809 -0.038356 -0.615789
v -0.196407 -0.013368 -0.580642
v -0.107168 0.008465 -0.608403
v -0.084197 -0.020457 -0.608403
v -0.212271 0.048398 -0.580642
v -0.107168 0.008465 -0.608403
v -0.196407 -0.013368 -0.580642
v -0.196407 0.111600 -0.585890
v -0.107168 0.008465 -0.608403
v -0.212271 0.048398 -0.580642
v -0.175341 0.167784 -0.585890
v -0.084197 0.111600 -0.614542
v -0.196407 0.111600 -0.585890
v -0.175341 0.167784 -0.585890
v -0.068143 0.134624 -0.614542
v -0.084197 0.111600 -0.614542
v -0.196407 0.111600 -0.585890
v -0.084197 0.111600 -0.614542
v -0.107168 0.008465 -0.608403
v -0.107168 0.008465 -0.608403
v -0.084197 0.111600 -0.614542
v 0.037809 -0.038356 -0.615789
v 0.068142 0.111600 -0.622165
v -0.084197 0.111600 -0.614542
v -0.068143 0.134624 -0.614542
v 0.180351 -0.015254 -0.588028
v 0.184590 0.056445 -0.593514
v 0.283163 -0.089651 -0.523746
v 0.283163 -0.089651 -0.523746
v 0.184590 0.056445 -0.593514
v 0.180351 0.111600 -0.593514
v 0.068142 -0.022343 -0.615789
v 0.184590 0.056445 -0.593514
v 0.180351 -0.015254 -0.588028
v 0.037809 -0.038356 -0.615789
v 0.077392 0.089605 -0.622165
v 0.068142 -0.022343 -0.615789
v -0.084197 0.111600 -0.614542
v 0.077392 0.089605 -0.622165
v 0.037809 -0.038356 -0.615789
v 0.068142 0.111600 -0.622165
v 0.077392 0.089605 -0.622165
v -0.084197 0.111600 -0.614542
v 0.068142 -0.022343 -0.615789
v 0.077392 0.089605 -0.622165
v 0.184590 0.056445 -0.593514
v 0.180351 0.111600 -0.593514
v 0.077392 0.089605 -0.622165
v 0.068142 0.111600 -0.622165
v 0.184590 0.056445 -0.593514
v 0.077392 0.089605 -0.622165
v 0.180351 0.111600 -0.593514
vn -0.902159 0.277103 0.330640
vn 0.323488 -0.146999 0.934744
vn -0.087858 -0.022823 0.995869
vn -0.931638 0.222113 0.287594
vn -0.574259 0.172878 0.800170
vn -0.053934 0.547293 0.835201
vn -0.146965 -0.953572 0.262871
vn -0.995919 -0.000513 0.090246
vn -0.127185 -0.832654 0.538991
vn 0.150818 0.987207 0.051731
vn 0.156792 0.945010 0.287006
vn 0.481903 0.088659 0.871728
vn 0.475750 0.123588 0.870854
vn 0.978558 -0.178092 0.103475
vn 0.828257 0.002946 0.560339
vn 0.993026 -0.000620 -0.117892
vn -0.246721 0.074274 0.966236
vn -0.230470 0.091970 0.968723
vn -0.177717 -0.012396 0.984004
vn -0.177285 0.070746 0.981613
vn -0.247400 -0.005508 0.968897
vn -0.184429 -0.467136 0.864736
vn -0.179575 -0.018220 0.983575
vn -0.239053 -0.017984 0.970840
vn -0.155032 -0.960410 0.231470
vn -0.993641 -0.092165 -0.064673
vn 0.375263 -0.252118 -0.891972
vn -0.164675 -0.983945 0.068805
vn -0.148992 -0.986572 -0.066904
vn -0.147066 -0.938320 -0.312934
vn 0.246695 -0.165741 -0.954814
vn 0.163284 -0.309302 -0.936840
vn -0.156680 -0.901659 -0.403064
vn 0.164142 0.984747 -0.057716
vn 0.938713 0.099352 -0.330072
vn -0.490030 0.183733 -0.852122
vn 0.160296 0.971956 -0.172066
vn 0.146766 0.960972 -0.234503
vn 0.678611 0.094148 -0.728439
vn 0.109112 0.827983 -0.550034
vn 0.125563 0.861639 -0.491744
vn -0.720666 -0.073299 -0.689397
vn -0.681626 -0.175078 -0.710446
vn -0.566427 0.074023 -0.820781
vn -0.068264 -0.054218 -0.996192
vn -0.247158 -0.196304 -0.948881
vn -0.280181 -0.071966 -0.957245
vn -0.260582 -0.014752 -0.965339
vn -0.246346 0.092366 -0.964770
vn -0.212362 0.148076 -0.965906
vn -0.247403 -0.002570 -0.968909
vn -0.065257 -0.044803 -0.996862
vn -0.049949 0.034828 -0.998144
vn 0.477392 -0.095052 -0.873534
vn 0.623383 0.047905 -0.780447
vn 0.244479 -0.088328 -0.965623
vn 0.031368 -0.059419 -0.997739
vn -0.051681 -0.033747 -0.998093
vn -0.049968 -0.021014 -0.998529
vn 0.235870 -0.074675 -0.968911
vn 0.246075 0.103488 -0.963709
vn 0.264015 0.020289 -0.964305
f 1//1 2//1 3//1
f 4//2 5//2 6//2
f 7//3 8//3 9//3
f 10//4 11//4 12//4
f 13//5 14//5 15//5
f 16//6 17//6 18//6
f 19//7 20//7 21//7
f 22//8 23//8 24//8
f 25//9 26//9 27//9
f 28//10 29//10 30//10
f 31//11 32//11 33//11
f 34//12 35//12 36//12
f 37//13 38//13 39//13
f 40//14 41//14 42//14
f 43//15 44//15 45//15
f 46//16 47//16 48//16
f 49//17 50//17 51//17
f 52//18 53//18 54//18
f 55//19 56//19 57//19
f 58//20 59//20 60//20
f 61//21 62//21 63//21
f 64//22 65//22 66//22
f 67//23 68//23 69//23
f 70//24 71//24 72//24
f 73//25 74//25 75//25
f 76//26 77//26 78//26
f 79//27 80//27 81//27
f 82//28 83//28 84//28
f 85//29 86//29 87//29
f 88//30 89//30 90//30
f 91//31 92//31 93//31
f 94//32 95//32 96//32
f 97//33 98//33 99//33
f 100//34 101//34 102//34
f 103//35 104//35 105//35
f 106//36 107//36 108//36
f 109//37 110//37 111//37
f 112//38 113//38 114//38
f 115//39 116//39 117//39
f 118//40 119//40 120//40
f 121//41 122//41 123//41
f 124//42 125//42 126//42
f 127//43 128//43 129//43
f 130//44 131//44 132//44
f 133//45 134//45 135//45
f 136//46 137//46 138//46
f 139//47 140//47 141//47
f 142//48 143//48 144//48
f 145//49 146//49 147//49
f 148//50 149//50 150//50
f 151//51 152//51 153//51
f 154//52 155//52 156//52
f 157//53 158//53 159//53
f 160//54 161//54 162//54
f 163//55 164//55 165//55
f 166//56 167//56 168//56
f 169//57 170//57 171//57
f 172//58 173//58 174//58
f 175//59 176//59 177//59
f 178//60 179//60 180//60
f 181//61 182//61 183//61
f 184//62 185//62 186//62
